<svg aria-hidden="true" style="position: absolute; width: 0; height: 0; overflow: hidden;" version="1.1" xmlns="http://www.w3.org/2000/svg" xmlns:xlink="http://www.w3.org/1999/xlink">
<defs>
<symbol id="instagram" viewBox="0 0 31 32">
<path fill="#fff" style="fill: var(--color1, #fff)" opacity="0.1" d="M0 15.661c0-8.483 6.877-15.36 15.36-15.36s15.36 6.877 15.36 15.36c0 8.483-6.877 15.36-15.36 15.36s-15.36-6.877-15.36-15.36z"></path>
<path fill="#fff" style="fill: var(--color1, #fff)" d="M15.361 7.469c-2.225 0-2.504 0.010-3.378 0.050-0.872 0.040-1.467 0.178-1.988 0.381-0.539 0.209-0.996 0.489-1.451 0.945s-0.736 0.912-0.946 1.451c-0.203 0.521-0.341 1.117-0.381 1.988-0.039 0.874-0.049 1.153-0.049 3.378s0.010 2.503 0.050 3.377c0.040 0.872 0.178 1.467 0.381 1.988 0.209 0.539 0.489 0.996 0.945 1.451s0.912 0.736 1.451 0.946c0.521 0.203 1.117 0.341 1.989 0.381 0.874 0.040 1.153 0.050 3.378 0.050s2.503-0.010 3.377-0.050c0.872-0.040 1.468-0.178 1.989-0.381 0.539-0.209 0.995-0.49 1.45-0.946s0.736-0.912 0.946-1.451c0.201-0.521 0.34-1.117 0.381-1.988 0.039-0.874 0.050-1.152 0.050-3.377s-0.010-2.504-0.050-3.378c-0.041-0.872-0.179-1.467-0.381-1.988-0.21-0.539-0.49-0.996-0.946-1.451s-0.911-0.736-1.451-0.945c-0.522-0.203-1.118-0.341-1.99-0.381-0.874-0.040-1.152-0.050-3.378-0.050h0.003zM14.626 8.946c0.218-0 0.461 0 0.735 0 2.187 0 2.447 0.008 3.31 0.047 0.799 0.037 1.232 0.17 1.521 0.282 0.382 0.148 0.655 0.326 0.941 0.613s0.464 0.56 0.613 0.942c0.112 0.288 0.246 0.722 0.282 1.521 0.039 0.864 0.048 1.123 0.048 3.309s-0.008 2.446-0.048 3.309c-0.036 0.799-0.17 1.232-0.282 1.521-0.148 0.382-0.326 0.654-0.613 0.941s-0.559 0.464-0.941 0.613c-0.288 0.113-0.722 0.246-1.521 0.282-0.864 0.039-1.123 0.048-3.31 0.048s-2.447-0.009-3.31-0.048c-0.799-0.037-1.232-0.17-1.521-0.282-0.382-0.148-0.655-0.326-0.942-0.613s-0.464-0.559-0.613-0.942c-0.112-0.288-0.246-0.722-0.282-1.521-0.039-0.864-0.047-1.123-0.047-3.311s0.008-2.446 0.047-3.309c0.037-0.799 0.17-1.232 0.282-1.521 0.148-0.382 0.326-0.655 0.613-0.942s0.56-0.464 0.942-0.613c0.289-0.113 0.722-0.246 1.521-0.282 0.756-0.034 1.049-0.044 2.575-0.046v0.002zM19.734 10.306c-0.543 0-0.983 0.44-0.983 0.983s0.44 0.983 0.983 0.983c0.543 0 0.983-0.44 0.983-0.983s-0.44-0.983-0.983-0.983zM15.361 11.454c-2.323 0-4.207 1.884-4.207 4.207s1.884 4.206 4.207 4.206c2.323 0 4.206-1.883 4.206-4.206s-1.883-4.207-4.206-4.207zM15.361 12.931c1.508 0 2.731 1.223 2.731 2.731s-1.223 2.731-2.731 2.731c-1.508 0-2.731-1.223-2.731-2.731s1.223-2.731 2.731-2.731z"></path>
</symbol>
<symbol id="dribbble" viewBox="0 0 31 32">
<path fill="#fff" style="fill: var(--color1, #fff)" opacity="0.1" d="M0 15.661c0-8.483 6.877-15.36 15.36-15.36s15.36 6.877 15.36 15.36c0 8.483-6.877 15.36-15.36 15.36s-15.36-6.877-15.36-15.36z"></path>
<path fill="#fff" style="fill: var(--color1, #fff)" d="M23.552 15.65c0 0.554-0.056 1.107-0.167 1.646-0.108 0.526-0.268 1.043-0.478 1.538-0.205 0.485-0.459 0.953-0.756 1.389-0.292 0.433-0.629 0.84-0.999 1.211-0.371 0.369-0.779 0.705-1.212 0.999-0.438 0.295-0.906 0.548-1.392 0.754-0.495 0.209-1.013 0.368-1.539 0.476-0.54 0.111-1.095 0.168-1.65 0.168s-1.111-0.057-1.65-0.168c-0.527-0.108-1.045-0.268-1.539-0.476-0.486-0.206-0.954-0.459-1.392-0.754-0.433-0.294-0.841-0.63-1.211-0.999-0.37-0.371-0.707-0.777-1-1.211-0.295-0.436-0.55-0.904-0.755-1.389-0.21-0.494-0.37-1.011-0.478-1.538-0.11-0.539-0.166-1.092-0.166-1.646s0.056-1.109 0.166-1.647c0.108-0.526 0.269-1.044 0.478-1.537 0.206-0.486 0.46-0.954 0.755-1.39 0.293-0.434 0.63-0.84 1-1.211 0.37-0.369 0.778-0.704 1.211-0.997 0.438-0.296 0.906-0.55 1.392-0.756 0.494-0.209 1.012-0.369 1.539-0.476 0.539-0.11 1.094-0.166 1.65-0.166s1.11 0.056 1.65 0.166c0.526 0.107 1.044 0.267 1.539 0.476 0.486 0.206 0.954 0.46 1.392 0.756 0.433 0.293 0.841 0.628 1.212 0.997 0.37 0.371 0.707 0.777 0.999 1.211 0.297 0.436 0.551 0.904 0.756 1.39 0.21 0.493 0.37 1.011 0.478 1.537 0.111 0.538 0.167 1.092 0.167 1.647zM12.375 9.331c-1.951 0.92-3.407 2.715-3.861 4.879 0.184 0.002 3.1 0.038 6.459-0.853-1.211-2.148-2.504-3.901-2.598-4.026zM15.552 14.432c-3.602 1.077-7.059 0.999-7.183 0.995-0.002 0.075-0.006 0.148-0.006 0.223 0 1.795 0.678 3.431 1.793 4.668-0.002-0.004 1.912-3.395 5.688-4.614 0.091-0.030 0.184-0.058 0.276-0.084-0.175-0.397-0.367-0.795-0.568-1.187zM19.98 10.407c-1.232-1.085-2.849-1.742-4.62-1.742-0.568 0-1.12 0.069-1.649 0.196 0.105 0.141 1.419 1.881 2.615 4.075 2.64-0.988 3.636-2.503 3.653-2.529zM16.596 16.777c-0.016 0.005-0.031 0.010-0.046 0.015-4.128 1.437-5.476 4.333-5.49 4.364 1.188 0.922 2.677 1.479 4.3 1.479 0.969 0 1.892-0.197 2.731-0.554-0.104-0.61-0.51-2.75-1.494-5.305zM19.269 21.444c1.571-1.059 2.686-2.739 2.998-4.686-0.144-0.046-2.101-0.665-4.359-0.304 0.918 2.518 1.291 4.569 1.362 4.99zM16.865 13.976c0.162 0.333 0.32 0.672 0.465 1.013 0.052 0.122 0.102 0.242 0.151 0.362 2.403-0.302 4.771 0.206 4.872 0.227-0.016-1.656-0.609-3.176-1.591-4.366-0.013 0.019-1.135 1.638-3.897 2.764z"></path>
</symbol>
<symbol id="twitter" viewBox="0 0 31 32">
<path fill="#fff" style="fill: var(--color1, #fff)" opacity="0.1" d="M0 15.661c0-8.483 6.877-15.36 15.36-15.36s15.36 6.877 15.36 15.36c0 8.483-6.877 15.36-15.36 15.36s-15.36-6.877-15.36-15.36z"></path>
<path fill="#fff" style="fill: var(--color1, #fff)" d="M14.9 12.786l0.032 0.532-0.537-0.065c-1.955-0.249-3.664-1.095-5.114-2.516l-0.709-0.705-0.183 0.521c-0.387 1.161-0.14 2.386 0.666 3.211 0.43 0.456 0.333 0.521-0.408 0.249-0.258-0.087-0.483-0.152-0.505-0.119-0.075 0.076 0.183 1.063 0.387 1.453 0.279 0.542 0.849 1.074 1.472 1.388l0.526 0.249-0.623 0.011c-0.602 0-0.623 0.011-0.559 0.239 0.215 0.705 1.064 1.453 2.009 1.779l0.666 0.228-0.58 0.347c-0.86 0.499-1.869 0.781-2.879 0.803-0.483 0.011-0.881 0.054-0.881 0.087 0 0.109 1.311 0.716 2.074 0.954 2.288 0.705 5.007 0.401 7.048-0.803 1.45-0.857 2.901-2.56 3.578-4.209 0.365-0.879 0.731-2.484 0.731-3.254 0-0.499 0.032-0.564 0.634-1.161 0.355-0.347 0.688-0.727 0.752-0.835 0.107-0.206 0.097-0.206-0.451-0.022-0.913 0.325-1.042 0.282-0.591-0.206 0.333-0.347 0.731-0.976 0.731-1.161 0-0.033-0.161 0.022-0.344 0.119-0.193 0.108-0.623 0.271-0.946 0.369l-0.58 0.184-0.526-0.358c-0.29-0.195-0.698-0.412-0.913-0.477-0.548-0.152-1.386-0.13-1.88 0.043-1.343 0.488-2.192 1.746-2.095 3.124z"></path>
</symbol>
<symbol id="youtube" viewBox="0 0 31 32">
<path fill="#fff" style="fill: var(--color1, #fff)" opacity="0.1" d="M0 15.661c0-8.483 6.877-15.36 15.36-15.36s15.36 6.877 15.36 15.36c0 8.483-6.877 15.36-15.36 15.36s-15.36-6.877-15.36-15.36z"></path>
<path fill="#fff" style="fill: var(--color1, #fff)" d="M21.761 10.381c0.705 0.193 1.26 0.763 1.449 1.487 0.342 1.312 0.342 4.049 0.342 4.049s0 2.737-0.342 4.049c-0.188 0.724-0.744 1.294-1.449 1.488-1.278 0.351-6.401 0.351-6.401 0.351s-5.123 0-6.401-0.351c-0.705-0.194-1.26-0.764-1.449-1.488-0.342-1.312-0.342-4.049-0.342-4.049s0-2.737 0.342-4.049c0.188-0.724 0.744-1.294 1.449-1.487 1.278-0.352 6.401-0.352 6.401-0.352s5.123 0 6.401 0.352zM13.824 13.613v5.12l4.096-2.56-4.096-2.56z"></path>
</symbol>
<symbol id="message" viewBox="0 0 36 32">
<path d="M26.559 0c2.384 0 4.677 0.942 6.364 2.633 1.689 1.687 2.633 3.963 2.633 6.345v14.044c0 4.96-4.036 8.978-8.997 8.978h-17.563c-4.962 0-8.996-4.018-8.996-8.978v-14.044c0-4.96 4.016-8.978 8.996-8.978h17.563zM29.387 11.627l0.142-0.142c0.425-0.516 0.425-1.262-0.020-1.778-0.247-0.265-0.587-0.427-0.94-0.462-0.373-0.020-0.729 0.107-0.997 0.356l-8.016 6.4c-1.031 0.855-2.508 0.855-3.555 0l-8-6.4c-0.553-0.409-1.317-0.356-1.778 0.124-0.48 0.48-0.533 1.244-0.126 1.778l0.233 0.231 8.089 6.311c0.996 0.782 2.203 1.209 3.467 1.209 1.26 0 2.489-0.427 3.483-1.209l8.020-6.418z"></path>
</symbol>
<symbol id="location" viewBox="0 0 29 32">
<path d="M0.8 13.308c0-7.36 6.15-13.308 13.59-13.308 7.46 0 13.61 5.949 13.61 13.308 0 3.709-1.349 7.152-3.569 10.070-2.449 3.219-5.468 6.024-8.866 8.225-0.778 0.509-1.479 0.547-2.333 0-3.417-2.201-6.436-5.006-8.864-8.225-2.222-2.918-3.569-6.361-3.569-10.070zM9.911 13.723c0 2.466 2.012 4.405 4.479 4.405 2.468 0 4.5-1.939 4.5-4.405 0-2.446-2.031-4.48-4.5-4.48-2.467 0-4.479 2.034-4.479 4.48z"></path>
</symbol>
<symbol id="calling" viewBox="0 0 32 32">
<path d="M19.769 0.013c-0.357-0.051-0.715 0.054-1.001 0.281-0.293 0.23-0.476 0.563-0.516 0.935-0.084 0.753 0.459 1.434 1.211 1.519 5.187 0.579 9.218 4.619 9.801 9.822 0.078 0.697 0.663 1.223 1.361 1.223 0.053 0 0.104-0.003 0.156-0.010 0.365-0.040 0.69-0.221 0.92-0.508 0.228-0.288 0.331-0.646 0.29-1.012-0.727-6.492-5.751-11.53-12.222-12.251zM19.869 5.584c-0.762-0.141-1.461 0.345-1.606 1.089s0.343 1.469 1.084 1.615c2.231 0.435 3.953 2.162 4.39 4.4v0.002c0.124 0.644 0.692 1.113 1.345 1.113 0.088 0 0.175-0.008 0.264-0.024 0.741-0.149 1.228-0.873 1.084-1.618-0.652-3.343-3.225-5.926-6.56-6.576zM22.4 20.945c0.722-0.416 1.538-0.887 2.567-0.668 0.932 0.197 4.109 2.776 4.98 3.67 0.57 0.585 0.888 1.189 0.937 1.794 0.086 2.371-3.136 5.078-3.722 5.416-0.779 0.561-1.686 0.844-2.704 0.844-1.040 0-2.201-0.296-3.466-0.886-6.865-2.865-17.351-13.145-20.124-19.956-1.15-2.536-1.158-4.627-0.019-6.199 0.454-0.737 3.043-3.818 5.362-3.721 0.617 0.053 1.216 0.369 1.804 0.945 0.889 0.871 3.404 4.058 3.598 4.993 0.215 1.039-0.257 1.866-0.676 2.592-0.089 0.156-0.21 0.341-0.342 0.544-0.501 0.77-1.167 1.795-0.931 2.449 1.691 4.151 5.596 7.772 9.749 9.473 0.642 0.233 1.666-0.438 2.434-0.941 0.2-0.131 0.382-0.251 0.536-0.34l0.017-0.010z"></path>
</symbol>
<symbol id="googleplay" viewBox="0 0 108 32">
<path fill="#000" style="fill: var(--color2, #000)" d="M104 0h-100c-2.209 0-4 1.791-4 4v24c0 2.209 1.791 4 4 4h100c2.209 0 4-1.791 4-4v-24c0-2.209-1.791-4-4-4z"></path>
<path fill="#a6a6a6" style="fill: var(--color3, #a6a6a6)" d="M104 0.64c0.891 0.001 1.745 0.355 2.374 0.985s0.985 1.484 0.986 2.375v24c-0.001 0.891-0.355 1.745-0.986 2.375s-1.483 0.984-2.374 0.985h-100c-0.891-0.001-1.745-0.355-2.375-0.985s-0.984-1.484-0.985-2.375v-24c0.001-0.891 0.355-1.745 0.985-2.375s1.484-0.984 2.375-0.985h100zM104 0h-100c-1.060 0.003-2.076 0.426-2.825 1.175s-1.172 1.765-1.175 2.825v24c0.003 1.060 0.426 2.076 1.175 2.825s1.765 1.172 2.825 1.175h100c1.060-0.003 2.075-0.426 2.825-1.175s1.172-1.765 1.175-2.825v-24c-0.003-1.060-0.426-2.076-1.175-2.825s-1.765-1.172-2.825-1.175z"></path>
<path fill="#fff" style="fill: var(--color1, #fff)" d="M37.935 8.195c0.015 0.294-0.031 0.587-0.133 0.862s-0.26 0.527-0.463 0.74c-0.227 0.236-0.502 0.421-0.806 0.543s-0.63 0.179-0.957 0.167c-0.329 0.003-0.656-0.060-0.961-0.185s-0.581-0.31-0.814-0.543c-0.232-0.234-0.416-0.511-0.539-0.817s-0.185-0.632-0.18-0.962c-0.005-0.329 0.057-0.656 0.18-0.962s0.307-0.583 0.539-0.817 0.509-0.418 0.814-0.544c0.305-0.125 0.631-0.188 0.961-0.185 0.339-0.001 0.674 0.067 0.985 0.201 0.289 0.117 0.546 0.301 0.751 0.536l-0.422 0.422c-0.161-0.189-0.363-0.339-0.591-0.438s-0.475-0.144-0.723-0.132c-0.25-0.001-0.497 0.048-0.727 0.144s-0.439 0.239-0.613 0.418c-0.174 0.179-0.31 0.391-0.4 0.624s-0.132 0.481-0.124 0.731c-0.006 0.374 0.099 0.741 0.302 1.055s0.495 0.56 0.838 0.708c0.343 0.148 0.723 0.191 1.090 0.123s0.707-0.244 0.974-0.505c0.246-0.265 0.389-0.61 0.402-0.972h-1.743v-0.577h2.326c0.022 0.119 0.033 0.241 0.034 0.362z"></path>
<path fill="#fff" style="fill: var(--color1, #fff)" d="M41.622 6.19h-2.186v1.522h1.971v0.577h-1.971v1.522h2.186v0.59h-2.802v-4.8h2.802v0.59z"></path>
<path fill="#fff" style="fill: var(--color1, #fff)" d="M44.223 10.4h-0.617v-4.21h-1.341v-0.59h3.298v0.59h-1.341v4.21z"></path>
<path fill="#fff" style="fill: var(--color1, #fff)" d="M47.95 10.4v-4.8h0.616v4.8h-0.616z"></path>
<path fill="#fff" style="fill: var(--color1, #fff)" d="M51.303 10.4h-0.617v-4.21h-1.341v-0.59h3.298v0.59h-1.341v4.21z"></path>
<path fill="#fff" style="fill: var(--color1, #fff)" d="M58.887 9.78c-0.467 0.466-1.1 0.727-1.76 0.727s-1.293-0.262-1.76-0.727c-0.231-0.234-0.413-0.512-0.534-0.818s-0.18-0.633-0.173-0.962c-0.007-0.329 0.051-0.656 0.173-0.962s0.303-0.584 0.534-0.818c0.231-0.231 0.505-0.414 0.807-0.539s0.625-0.189 0.952-0.189c0.327 0 0.65 0.065 0.952 0.19s0.576 0.309 0.806 0.54c0.231 0.234 0.413 0.511 0.535 0.816s0.181 0.632 0.175 0.96c0.007 0.329-0.052 0.656-0.173 0.962s-0.303 0.584-0.534 0.818zM55.823 9.378c0.346 0.345 0.815 0.54 1.304 0.54s0.958-0.194 1.304-0.54c0.177-0.182 0.316-0.397 0.408-0.634s0.134-0.49 0.126-0.744c0.009-0.254-0.034-0.507-0.126-0.744s-0.23-0.453-0.408-0.634c-0.346-0.345-0.815-0.539-1.304-0.539s-0.958 0.194-1.304 0.539c-0.177 0.182-0.316 0.398-0.407 0.634s-0.134 0.49-0.126 0.743c-0.009 0.254 0.034 0.507 0.126 0.743s0.23 0.453 0.407 0.634z"></path>
<path fill="#fff" style="fill: var(--color1, #fff)" d="M60.46 10.4v-4.8h0.751l2.333 3.734h0.027l-0.027-0.925v-2.809h0.617v4.8h-0.644l-2.441-3.915h-0.027l0.027 0.925v2.99h-0.616z"></path>
<path fill="#fff" style="fill: var(--color1, #fff)" d="M54.509 17.401c-0.672 0.003-1.329 0.204-1.887 0.58s-0.992 0.908-1.248 1.53c-0.256 0.622-0.321 1.306-0.188 1.965s0.458 1.264 0.934 1.739c0.476 0.475 1.083 0.797 1.742 0.928s1.343 0.062 1.964-0.196c0.621-0.258 1.152-0.694 1.525-1.253s0.573-1.217 0.572-1.889c0.007-0.45-0.077-0.896-0.247-1.313s-0.421-0.795-0.74-1.112-0.698-0.568-1.115-0.735c-0.417-0.168-0.864-0.25-1.314-0.242zM54.509 22.866c-0.414 0.030-0.827-0.066-1.186-0.275s-0.647-0.521-0.826-0.895c-0.179-0.375-0.241-0.794-0.179-1.205s0.248-0.792 0.531-1.096c0.283-0.304 0.651-0.515 1.056-0.607s0.828-0.060 1.214 0.092c0.386 0.152 0.718 0.417 0.952 0.76s0.359 0.749 0.359 1.164c0.013 0.262-0.027 0.524-0.118 0.771s-0.229 0.473-0.408 0.665c-0.179 0.192-0.394 0.347-0.634 0.454s-0.498 0.166-0.761 0.172zM47.058 17.401c-0.672 0.003-1.329 0.204-1.887 0.58s-0.992 0.908-1.248 1.53c-0.256 0.622-0.321 1.306-0.188 1.965s0.458 1.264 0.934 1.739 1.083 0.797 1.742 0.928c0.66 0.13 1.343 0.062 1.964-0.196s1.152-0.694 1.525-1.253 0.573-1.217 0.572-1.889c0.007-0.45-0.077-0.896-0.247-1.313s-0.421-0.795-0.74-1.112c-0.319-0.317-0.698-0.568-1.115-0.735s-0.864-0.25-1.314-0.242zM47.058 22.866c-0.414 0.030-0.827-0.066-1.186-0.275s-0.647-0.521-0.826-0.895c-0.179-0.375-0.241-0.794-0.179-1.205s0.248-0.792 0.531-1.096c0.283-0.304 0.651-0.515 1.056-0.607s0.828-0.060 1.214 0.092c0.386 0.152 0.718 0.417 0.952 0.76s0.359 0.749 0.359 1.164c0.013 0.262-0.027 0.524-0.118 0.771s-0.229 0.473-0.408 0.665c-0.179 0.192-0.394 0.347-0.634 0.454s-0.498 0.166-0.761 0.172zM38.195 18.445v1.443h3.454c-0.050 0.677-0.327 1.317-0.786 1.817-0.346 0.353-0.762 0.629-1.222 0.811s-0.952 0.266-1.446 0.246c-1.010-0.014-1.973-0.424-2.682-1.143s-1.107-1.688-1.107-2.698c0-1.010 0.398-1.979 1.107-2.698s1.673-1.129 2.682-1.143c0.97-0.013 1.905 0.358 2.604 1.031l1.018-1.018c-0.476-0.472-1.042-0.843-1.664-1.093s-1.288-0.373-1.958-0.363c-0.7-0.010-1.396 0.119-2.046 0.38s-1.242 0.649-1.741 1.14c-0.499 0.492-0.895 1.078-1.166 1.724s-0.41 1.34-0.41 2.040c0 0.7 0.139 1.394 0.41 2.040s0.667 1.232 1.166 1.724c0.499 0.492 1.091 0.879 1.741 1.14s1.345 0.39 2.046 0.38c0.684 0.028 1.367-0.089 2.002-0.345s1.209-0.643 1.684-1.138c0.842-0.919 1.291-2.131 1.25-3.377 0.003-0.302-0.023-0.605-0.077-0.902h-4.859zM74.441 19.567c-0.204-0.616-0.594-1.155-1.115-1.542s-1.149-0.605-1.798-0.623c-0.437 0.003-0.869 0.094-1.27 0.268s-0.762 0.428-1.062 0.746c-0.3 0.318-0.532 0.694-0.683 1.104s-0.217 0.847-0.194 1.284c-0.010 0.447 0.071 0.892 0.236 1.308s0.414 0.793 0.729 1.111c0.315 0.318 0.691 0.568 1.105 0.737s0.858 0.253 1.306 0.246c0.561 0.003 1.113-0.133 1.608-0.396s0.917-0.645 1.227-1.112l-1.16-0.773c-0.174 0.289-0.42 0.527-0.713 0.692s-0.625 0.251-0.962 0.249c-0.347 0.013-0.689-0.078-0.983-0.262s-0.526-0.452-0.666-0.769l4.55-1.882-0.155-0.387zM69.802 20.701c-0.016-0.248 0.018-0.496 0.099-0.731s0.208-0.45 0.374-0.635c0.166-0.185 0.366-0.335 0.591-0.441s0.468-0.167 0.715-0.178c0.258-0.017 0.516 0.042 0.74 0.171s0.406 0.32 0.523 0.551l-3.042 1.263zM66.103 24h1.495v-10.001h-1.495v10.001zM63.654 18.162h-0.052c-0.227-0.247-0.505-0.443-0.814-0.574s-0.642-0.195-0.978-0.187c-0.877 0.037-1.706 0.412-2.314 1.046s-0.947 1.478-0.947 2.356c0 0.878 0.339 1.722 0.947 2.356s1.437 1.009 2.314 1.046c0.337 0.009 0.672-0.056 0.981-0.189s0.586-0.333 0.81-0.584h0.052v0.49c0 1.302-0.696 1.998-1.817 1.998-0.374-0.009-0.736-0.129-1.042-0.345s-0.539-0.518-0.673-0.867l-1.302 0.541c0.245 0.597 0.664 1.108 1.201 1.466s1.169 0.548 1.815 0.545c1.753 0 3.235-1.031 3.235-3.544v-6.109h-1.418v0.554zM61.94 22.866c-0.517-0.044-0.998-0.28-1.349-0.662s-0.546-0.882-0.546-1.4c0-0.519 0.195-1.018 0.546-1.4s0.832-0.618 1.349-0.662c0.257 0.013 0.509 0.077 0.741 0.189s0.439 0.27 0.608 0.463c0.17 0.194 0.298 0.419 0.379 0.664s0.111 0.503 0.089 0.759c0.020 0.255-0.011 0.511-0.093 0.754s-0.211 0.466-0.38 0.657c-0.17 0.191-0.376 0.346-0.607 0.456s-0.482 0.172-0.737 0.182zM81.445 13.999h-3.577v10.001h1.493v-3.789h2.085c0.422 0.023 0.845-0.040 1.242-0.186s0.76-0.371 1.067-0.661c0.307-0.291 0.551-0.641 0.718-1.029s0.254-0.807 0.254-1.23c0-0.423-0.086-0.841-0.254-1.23s-0.411-0.739-0.718-1.029c-0.307-0.291-0.67-0.516-1.067-0.661s-0.819-0.209-1.242-0.186zM81.483 18.819h-2.123v-3.428h2.123c0.228-0.005 0.454 0.036 0.667 0.12s0.405 0.21 0.568 0.369c0.163 0.16 0.293 0.35 0.381 0.561s0.134 0.436 0.134 0.664c0 0.228-0.045 0.454-0.134 0.664s-0.218 0.401-0.381 0.561c-0.163 0.16-0.356 0.285-0.568 0.369s-0.439 0.125-0.667 0.12zM90.709 17.383c-0.545-0.032-1.087 0.096-1.561 0.368s-0.856 0.676-1.103 1.163l1.326 0.553c0.131-0.242 0.33-0.44 0.573-0.57s0.517-0.187 0.791-0.164c0.378-0.037 0.756 0.078 1.050 0.319s0.481 0.589 0.519 0.968v0.103c-0.479-0.255-1.014-0.387-1.557-0.386-1.428 0-2.882 0.785-2.882 2.252 0.014 0.309 0.090 0.612 0.223 0.892s0.322 0.529 0.553 0.734c0.232 0.205 0.502 0.362 0.795 0.46s0.604 0.137 0.912 0.114c0.376 0.022 0.751-0.057 1.086-0.229s0.618-0.431 0.819-0.749h0.051v0.772h1.441v-3.834c0-1.776-1.325-2.766-3.036-2.766zM90.528 22.864c-0.489 0-1.17-0.244-1.17-0.849 0-0.772 0.849-1.068 1.582-1.068 0.477-0.013 0.947 0.103 1.364 0.335-0.055 0.434-0.265 0.833-0.591 1.124s-0.747 0.454-1.185 0.459zM98.994 17.602l-1.711 4.336h-0.051l-1.776-4.336h-1.608l2.663 6.060-1.518 3.371h1.557l4.105-9.431h-1.66zM85.549 24h1.493v-10.001h-1.493v10.001z"></path>
<path fill="#000" style="fill: var(--color2, #000)" d="M8.348 6.030c-0.262 0.314-0.395 0.716-0.37 1.124v17.693c-0.025 0.408 0.108 0.81 0.37 1.124l0.059 0.058 9.911-9.911v-0.234l-9.911-9.912-0.059 0.058z"></path>
<path fill="#000" style="fill: var(--color2, #000)" d="M21.622 19.423l-3.304-3.305v-0.234l3.304-3.304 0.074 0.042 3.914 2.224c1.118 0.635 1.118 1.675 0 2.31l-3.99 2.267z"></path>
<path fill="#000" style="fill: var(--color2, #000)" d="M21.697 19.38l-3.379-3.379-9.97 9.97c0.228 0.201 0.519 0.316 0.822 0.325s0.601-0.089 0.84-0.276l11.687-6.64z"></path>
<path fill="#000" style="fill: var(--color2, #000)" d="M21.697 12.622l-11.687-6.64c-0.239-0.187-0.536-0.285-0.84-0.276s-0.595 0.124-0.822 0.325l9.97 9.97 3.379-3.379z"></path>
<path fill="#000" style="fill: var(--color2, #000)" opacity="0.2" d="M21.623 19.306l-11.612 6.598c-0.23 0.175-0.511 0.271-0.8 0.272s-0.571-0.091-0.803-0.264l-0.060 0.060 0.059 0.058 0-0c0.232 0.173 0.514 0.265 0.803 0.264s0.57-0.097 0.8-0.272l11.687-6.64-0.074-0.074z"></path>
<path fill="#000" style="fill: var(--color2, #000)" opacity="0.12" d="M8.348 25.855c-0.262-0.314-0.395-0.716-0.37-1.124v0.117c-0.025 0.408 0.108 0.81 0.37 1.124l0.060-0.060-0.060-0.057z"></path>
<path fill="#000" style="fill: var(--color2, #000)" opacity="0.12" d="M25.612 17.039l-3.989 2.267 0.074 0.074 3.914-2.224c0.23-0.1 0.43-0.26 0.577-0.463s0.238-0.442 0.262-0.692c-0.050 0.226-0.151 0.438-0.297 0.618s-0.331 0.324-0.542 0.42z"></path>
<path fill="#fff" style="fill: var(--color1, #fff)" opacity="0.25" d="M10.011 6.099l15.601 8.864c0.211 0.096 0.397 0.24 0.542 0.42s0.247 0.392 0.296 0.618c-0.024-0.25-0.114-0.489-0.261-0.692s-0.347-0.363-0.577-0.463l-15.601-8.864c-1.118-0.635-2.033-0.108-2.033 1.173v0.117c0-1.281 0.915-1.808 2.033-1.173z"></path>
</symbol>
<symbol id="appstore" viewBox="0 0 108 32">
<path fill="#a6a6a6" style="fill: var(--color3, #a6a6a6)" d="M99.399 0h-90.794c-0.331 0-0.658 0-0.988 0.002-0.276 0.002-0.55 0.006-0.829 0.010-0.606 0.006-1.211 0.054-1.809 0.141-0.597 0.090-1.175 0.259-1.716 0.502-0.539 0.245-1.032 0.563-1.461 0.943-0.431 0.379-0.79 0.817-1.063 1.297s-0.465 0.993-0.564 1.523c-0.101 0.529-0.155 1.065-0.162 1.602-0.008 0.245-0.009 0.491-0.014 0.737v18.491c0.004 0.248 0.005 0.489 0.014 0.738 0.007 0.537 0.061 1.072 0.162 1.602 0.099 0.53 0.289 1.044 0.564 1.523 0.273 0.479 0.633 0.915 1.063 1.291 0.427 0.382 0.92 0.7 1.461 0.943s1.118 0.414 1.716 0.505c0.598 0.087 1.203 0.134 1.809 0.141 0.279 0.005 0.553 0.009 0.829 0.009 0.33 0.002 0.657 0.002 0.988 0.002h90.794c0.325 0 0.654 0 0.978-0.002 0.275 0 0.558-0.003 0.832-0.009 0.605-0.007 1.209-0.054 1.806-0.141 0.599-0.092 1.179-0.262 1.722-0.505 0.541-0.243 1.034-0.561 1.46-0.943 0.43-0.378 0.79-0.814 1.066-1.291 0.273-0.48 0.461-0.993 0.558-1.523 0.101-0.529 0.157-1.065 0.168-1.602 0.003-0.248 0.003-0.489 0.003-0.738 0.007-0.291 0.007-0.58 0.007-0.875v-16.743c0-0.293 0-0.584-0.007-0.873 0-0.245 0-0.491-0.003-0.737-0.011-0.537-0.067-1.072-0.168-1.602-0.098-0.53-0.286-1.043-0.558-1.523-0.557-0.962-1.441-1.746-2.526-2.24-0.542-0.242-1.122-0.411-1.722-0.502-0.597-0.088-1.2-0.135-1.806-0.141-0.274-0.004-0.557-0.009-0.832-0.010-0.324-0.002-0.654-0.002-0.978-0.002v0z"></path>
<path fill="#000" style="fill: var(--color2, #000)" d="M7.544 31.302c-0.275 0-0.544-0.003-0.818-0.009-0.566-0.007-1.131-0.050-1.69-0.13-0.521-0.079-1.026-0.227-1.498-0.438-0.468-0.209-0.894-0.484-1.263-0.813-0.374-0.325-0.686-0.703-0.923-1.117-0.239-0.417-0.405-0.864-0.491-1.326-0.093-0.496-0.143-0.998-0.151-1.5-0.006-0.169-0.013-0.731-0.013-0.731v-18.484c0 0 0.008-0.553 0.013-0.716 0.007-0.502 0.057-1.003 0.15-1.498 0.086-0.463 0.252-0.911 0.491-1.33 0.236-0.414 0.546-0.792 0.918-1.119 0.372-0.33 0.799-0.606 1.268-0.818 0.471-0.211 0.975-0.357 1.495-0.435 0.561-0.081 1.127-0.125 1.696-0.131l0.816-0.010 93.737 0.010c0.563 0.006 1.125 0.049 1.68 0.13 0.526 0.079 1.034 0.227 1.51 0.438 0.938 0.428 1.702 1.105 2.184 1.936 0.235 0.416 0.398 0.861 0.483 1.319 0.094 0.499 0.146 1.004 0.158 1.51 0.002 0.227 0.002 0.47 0.002 0.712 0.007 0.3 0.007 0.586 0.007 0.874v16.746c0 0.291 0 0.574-0.007 0.86 0 0.26 0 0.499-0.003 0.744-0.010 0.497-0.062 0.993-0.154 1.483-0.085 0.465-0.25 0.916-0.489 1.336-0.238 0.41-0.548 0.784-0.918 1.109-0.37 0.331-0.797 0.607-1.266 0.818-0.474 0.213-0.983 0.361-1.508 0.44-0.558 0.081-1.124 0.124-1.69 0.13-0.265 0.005-0.542 0.009-0.811 0.009l-0.981 0.002-91.936-0.002z"></path>
<path fill="#fff" style="fill: var(--color1, #fff)" d="M26.238 16.24c0.009-0.668 0.186-1.322 0.516-1.903s0.801-1.069 1.37-1.418c-0.361-0.516-0.838-0.941-1.392-1.24s-1.171-0.466-1.801-0.486c-1.343-0.141-2.646 0.804-3.33 0.804-0.698 0-1.752-0.79-2.887-0.767-0.734 0.024-1.45 0.237-2.077 0.62s-1.144 0.921-1.502 1.563c-1.547 2.679-0.393 6.616 1.089 8.781 0.742 1.060 1.608 2.245 2.742 2.203 1.11-0.046 1.524-0.708 2.864-0.708 1.327 0 1.716 0.708 2.873 0.681 1.191-0.019 1.941-1.065 2.656-2.135 0.533-0.756 0.943-1.59 1.215-2.474-0.692-0.293-1.282-0.782-1.697-1.408s-0.637-1.36-0.638-2.111z"></path>
<path fill="#fff" style="fill: var(--color1, #fff)" d="M24.052 9.769c0.649-0.779 0.969-1.781 0.892-2.792-0.992 0.104-1.908 0.578-2.566 1.328-0.322 0.366-0.568 0.792-0.725 1.254s-0.222 0.949-0.19 1.436c0.496 0.005 0.987-0.102 1.435-0.314s0.843-0.523 1.154-0.91z"></path>
<path fill="#fff" style="fill: var(--color1, #fff)" d="M40.265 21.712h-3.787l-0.909 2.685h-1.604l3.587-9.934h1.666l3.587 9.934h-1.631l-0.909-2.685zM36.87 20.473h3.002l-1.48-4.358h-0.041l-1.48 4.358z"></path>
<path fill="#fff" style="fill: var(--color1, #fff)" d="M50.55 20.776c0 2.251-1.205 3.697-3.023 3.697-0.46 0.024-0.918-0.082-1.322-0.306s-0.735-0.557-0.957-0.961h-0.034v3.588h-1.487v-9.639h1.439v1.205h0.027c0.233-0.402 0.57-0.733 0.976-0.959s0.866-0.337 1.33-0.322c1.838 0 3.050 1.453 3.050 3.698zM49.022 20.776c0-1.466-0.758-2.43-1.914-2.43-1.136 0-1.9 0.984-1.9 2.43 0 1.459 0.764 2.437 1.9 2.437 1.156 0 1.914-0.957 1.914-2.437z"></path>
<path fill="#fff" style="fill: var(--color1, #fff)" d="M58.522 20.776c0 2.251-1.205 3.697-3.023 3.697-0.461 0.024-0.919-0.082-1.322-0.306s-0.735-0.557-0.957-0.961h-0.034v3.588h-1.487v-9.639h1.439v1.205h0.027c0.233-0.402 0.57-0.733 0.976-0.959s0.866-0.337 1.33-0.322c1.838 0 3.050 1.453 3.050 3.698zM56.994 20.776c0-1.466-0.758-2.43-1.914-2.43-1.136 0-1.9 0.984-1.9 2.43 0 1.459 0.764 2.437 1.9 2.437 1.156 0 1.914-0.957 1.914-2.437v0z"></path>
<path fill="#fff" style="fill: var(--color1, #fff)" d="M63.791 21.629c0.11 0.985 1.067 1.632 2.375 1.632 1.253 0 2.155-0.647 2.155-1.535 0-0.771-0.544-1.233-1.831-1.549l-1.288-0.31c-1.824-0.441-2.671-1.294-2.671-2.678 0-1.714 1.494-2.891 3.615-2.891 2.099 0 3.538 1.177 3.587 2.891h-1.501c-0.090-0.991-0.909-1.59-2.107-1.59s-2.017 0.605-2.017 1.487c0 0.702 0.523 1.116 1.804 1.432l1.094 0.269c2.038 0.482 2.885 1.301 2.885 2.754 0 1.859-1.48 3.023-3.835 3.023-2.203 0-3.691-1.137-3.787-2.934l1.522 0z"></path>
<path fill="#fff" style="fill: var(--color1, #fff)" d="M73.1 15.44v1.714h1.377v1.177h-1.377v3.993c0 0.62 0.276 0.909 0.881 0.909 0.164-0.003 0.327-0.014 0.489-0.034v1.17c-0.272 0.051-0.549 0.074-0.826 0.069-1.466 0-2.038-0.551-2.038-1.955v-4.152h-1.053v-1.177h1.053v-1.714h1.494z"></path>
<path fill="#fff" style="fill: var(--color1, #fff)" d="M75.275 20.776c0-2.279 1.342-3.711 3.435-3.711 2.1 0 3.436 1.432 3.436 3.711 0 2.285-1.329 3.711-3.436 3.711s-3.435-1.426-3.435-3.711zM80.631 20.776c0-1.563-0.717-2.486-1.921-2.486s-1.92 0.93-1.92 2.486c0 1.57 0.716 2.485 1.92 2.485s1.921-0.916 1.921-2.485v0z"></path>
<path fill="#fff" style="fill: var(--color1, #fff)" d="M83.371 17.154h1.418v1.233h0.034c0.096-0.385 0.322-0.725 0.638-0.964s0.707-0.36 1.104-0.345c0.171-0.001 0.342 0.018 0.509 0.056v1.391c-0.216-0.066-0.442-0.096-0.668-0.090-0.216-0.009-0.431 0.029-0.631 0.112s-0.379 0.207-0.526 0.365-0.258 0.347-0.326 0.552c-0.068 0.205-0.090 0.423-0.066 0.638v4.296h-1.487v-7.243z"></path>
<path fill="#fff" style="fill: var(--color1, #fff)" d="M93.93 22.27c-0.2 1.315-1.481 2.217-3.119 2.217-2.107 0-3.414-1.412-3.414-3.677 0-2.272 1.314-3.745 3.352-3.745 2.004 0 3.264 1.377 3.264 3.573v0.509h-5.115v0.090c-0.024 0.267 0.010 0.535 0.098 0.788s0.229 0.484 0.414 0.678c0.184 0.194 0.407 0.347 0.655 0.448s0.514 0.148 0.782 0.138c0.351 0.033 0.704-0.048 1.006-0.232s0.535-0.459 0.667-0.787h1.412zM88.904 20.108h3.622c0.014-0.24-0.023-0.48-0.107-0.705s-0.213-0.43-0.379-0.603c-0.167-0.173-0.368-0.309-0.59-0.4s-0.461-0.136-0.701-0.131c-0.242-0.001-0.482 0.045-0.706 0.137s-0.427 0.227-0.598 0.398c-0.172 0.171-0.308 0.374-0.4 0.598s-0.14 0.464-0.14 0.706v0z"></path>
<path fill="#fff" style="fill: var(--color1, #fff)" d="M36.684 6.985c0.312-0.022 0.624 0.025 0.916 0.138s0.554 0.29 0.769 0.516c0.215 0.227 0.377 0.499 0.474 0.796s0.127 0.612 0.088 0.922c0 1.525-0.824 2.402-2.246 2.402h-1.724v-4.774h1.724zM35.701 11.083h0.9c0.223 0.013 0.446-0.023 0.652-0.107s0.392-0.212 0.543-0.377c0.151-0.164 0.263-0.36 0.329-0.574s0.083-0.439 0.050-0.659c0.030-0.22 0.011-0.444-0.055-0.655s-0.179-0.406-0.329-0.569c-0.15-0.163-0.335-0.291-0.541-0.374s-0.427-0.12-0.649-0.108h-0.9v3.424z"></path>
<path fill="#fff" style="fill: var(--color1, #fff)" d="M39.767 9.956c-0.023-0.237 0.004-0.476 0.080-0.701s0.196-0.433 0.356-0.609c0.16-0.176 0.355-0.317 0.572-0.413s0.453-0.146 0.69-0.146c0.238 0 0.473 0.050 0.69 0.146s0.412 0.237 0.572 0.413c0.16 0.176 0.281 0.383 0.356 0.609s0.102 0.464 0.080 0.701c0.023 0.237-0.004 0.476-0.079 0.702s-0.196 0.434-0.356 0.61-0.355 0.317-0.573 0.414c-0.218 0.096-0.453 0.146-0.691 0.146s-0.474-0.050-0.691-0.146c-0.218-0.096-0.413-0.237-0.573-0.414s-0.281-0.384-0.356-0.61c-0.075-0.226-0.102-0.465-0.079-0.702zM42.434 9.956c0-0.781-0.351-1.238-0.966-1.238-0.618 0-0.966 0.457-0.966 1.238 0 0.787 0.348 1.24 0.966 1.24 0.616 0 0.966-0.456 0.966-1.24h-0z"></path>
<path fill="#fff" style="fill: var(--color1, #fff)" d="M47.681 11.758h-0.738l-0.745-2.653h-0.056l-0.741 2.653h-0.73l-0.993-3.602h0.721l0.645 2.749h0.053l0.741-2.749h0.682l0.741 2.749h0.056l0.642-2.749h0.711l-0.989 3.602z"></path>
<path fill="#fff" style="fill: var(--color1, #fff)" d="M49.506 8.156h0.684v0.572h0.053c0.090-0.206 0.242-0.378 0.435-0.493s0.416-0.167 0.64-0.149c0.175-0.013 0.351 0.013 0.515 0.077s0.311 0.164 0.431 0.293c0.12 0.129 0.209 0.283 0.261 0.45s0.066 0.345 0.040 0.519v2.332h-0.711v-2.153c0-0.579-0.252-0.867-0.777-0.867-0.119-0.006-0.238 0.015-0.348 0.059s-0.21 0.113-0.292 0.199-0.144 0.19-0.182 0.303c-0.038 0.113-0.051 0.233-0.039 0.351v2.107h-0.711v-3.602z"></path>
<path fill="#fff" style="fill: var(--color1, #fff)" d="M53.698 6.75h0.711v5.009h-0.711v-5.009z"></path>
<path fill="#fff" style="fill: var(--color1, #fff)" d="M55.397 9.956c-0.023-0.237 0.004-0.476 0.080-0.701s0.196-0.433 0.356-0.609c0.16-0.176 0.355-0.317 0.572-0.413s0.453-0.146 0.691-0.146 0.473 0.050 0.691 0.146c0.217 0.096 0.412 0.237 0.572 0.413s0.281 0.383 0.356 0.609c0.075 0.226 0.102 0.464 0.080 0.701 0.023 0.237-0.004 0.476-0.079 0.702s-0.196 0.434-0.356 0.61c-0.16 0.176-0.355 0.317-0.573 0.414s-0.453 0.146-0.691 0.146-0.474-0.050-0.691-0.146c-0.218-0.096-0.413-0.237-0.573-0.414s-0.281-0.384-0.356-0.61-0.102-0.465-0.079-0.702zM58.063 9.956c0-0.781-0.351-1.238-0.966-1.238-0.618 0-0.966 0.457-0.966 1.238 0 0.787 0.348 1.24 0.966 1.24 0.616 0 0.966-0.456 0.966-1.24v0z"></path>
<path fill="#fff" style="fill: var(--color1, #fff)" d="M59.543 10.739c0-0.648 0.483-1.022 1.34-1.075l0.976-0.056v-0.311c0-0.38-0.252-0.595-0.738-0.595-0.397 0-0.672 0.146-0.751 0.4h-0.688c0.073-0.619 0.655-1.016 1.472-1.016 0.903 0 1.412 0.45 1.412 1.211v2.461h-0.684v-0.506h-0.056c-0.114 0.182-0.274 0.33-0.465 0.429s-0.403 0.146-0.617 0.137c-0.151 0.016-0.304-0-0.449-0.047s-0.278-0.124-0.391-0.225c-0.113-0.102-0.204-0.226-0.266-0.364s-0.095-0.289-0.095-0.441zM61.859 10.432v-0.301l-0.88 0.056c-0.496 0.033-0.721 0.202-0.721 0.52 0 0.324 0.281 0.513 0.668 0.513 0.113 0.011 0.228 0 0.337-0.034s0.21-0.089 0.297-0.162c0.087-0.073 0.158-0.164 0.21-0.265s0.082-0.213 0.090-0.326z"></path>
<path fill="#fff" style="fill: var(--color1, #fff)" d="M63.501 9.956c0-1.138 0.585-1.859 1.495-1.859 0.225-0.010 0.449 0.044 0.644 0.156s0.355 0.277 0.46 0.476h0.053v-1.978h0.711v5.009h-0.681v-0.569h-0.056c-0.113 0.198-0.279 0.361-0.478 0.472s-0.425 0.165-0.653 0.157c-0.916 0-1.495-0.721-1.495-1.862zM64.236 9.956c0 0.764 0.36 1.224 0.962 1.224 0.599 0 0.97-0.466 0.97-1.221 0-0.751-0.374-1.224-0.97-1.224-0.598 0-0.962 0.463-0.962 1.221v0z"></path>
<path fill="#fff" style="fill: var(--color1, #fff)" d="M69.807 9.956c-0.023-0.237 0.004-0.476 0.079-0.701s0.196-0.433 0.356-0.609c0.16-0.176 0.355-0.317 0.572-0.413s0.453-0.146 0.69-0.146 0.473 0.050 0.69 0.146c0.218 0.096 0.412 0.237 0.572 0.413s0.281 0.383 0.356 0.609c0.075 0.226 0.102 0.464 0.080 0.701 0.023 0.237-0.004 0.476-0.079 0.702s-0.196 0.434-0.356 0.61-0.355 0.317-0.573 0.414c-0.218 0.096-0.453 0.146-0.691 0.146s-0.474-0.050-0.691-0.146c-0.218-0.096-0.413-0.237-0.573-0.414s-0.281-0.384-0.356-0.61c-0.075-0.226-0.102-0.465-0.078-0.702zM72.473 9.956c0-0.781-0.351-1.238-0.966-1.238-0.618 0-0.966 0.457-0.966 1.238 0 0.787 0.348 1.24 0.966 1.24 0.616 0 0.966-0.456 0.966-1.24z"></path>
<path fill="#fff" style="fill: var(--color1, #fff)" d="M74.158 8.156h0.684v0.572h0.053c0.090-0.206 0.242-0.378 0.435-0.493s0.416-0.167 0.64-0.149c0.175-0.013 0.351 0.013 0.515 0.077s0.311 0.164 0.431 0.293c0.12 0.129 0.209 0.283 0.261 0.45s0.066 0.345 0.040 0.519v2.332h-0.711v-2.153c0-0.579-0.252-0.867-0.777-0.867-0.119-0.006-0.238 0.015-0.348 0.059s-0.21 0.113-0.292 0.199-0.144 0.19-0.182 0.303c-0.038 0.113-0.051 0.233-0.039 0.351v2.107h-0.711v-3.602z"></path>
<path fill="#fff" style="fill: var(--color1, #fff)" d="M81.235 7.259v0.913h0.78v0.599h-0.78v1.852c0 0.377 0.155 0.543 0.509 0.543 0.091-0 0.182-0.006 0.271-0.016v0.592c-0.127 0.023-0.257 0.035-0.386 0.036-0.791 0-1.106-0.278-1.106-0.973v-2.034h-0.572v-0.599h0.572v-0.913h0.712z"></path>
<path fill="#fff" style="fill: var(--color1, #fff)" d="M82.986 6.75h0.705v1.985h0.056c0.094-0.208 0.251-0.381 0.447-0.496s0.424-0.168 0.651-0.149c0.174-0.009 0.349 0.020 0.51 0.085s0.307 0.166 0.426 0.294c0.119 0.128 0.207 0.281 0.26 0.448s0.068 0.343 0.045 0.516v2.326h-0.712v-2.15c0-0.575-0.268-0.867-0.77-0.867-0.122-0.010-0.246 0.007-0.361 0.049s-0.219 0.11-0.306 0.196-0.153 0.192-0.194 0.307c-0.042 0.115-0.058 0.238-0.046 0.36v2.104h-0.711v-5.009z"></path>
<path fill="#fff" style="fill: var(--color1, #fff)" d="M90.232 10.786c-0.097 0.329-0.306 0.614-0.591 0.805s-0.629 0.275-0.97 0.238c-0.238 0.006-0.474-0.039-0.691-0.133s-0.414-0.234-0.572-0.411c-0.158-0.177-0.276-0.386-0.346-0.613s-0.088-0.466-0.056-0.702c-0.031-0.236-0.012-0.476 0.058-0.704s0.186-0.438 0.344-0.616 0.351-0.321 0.569-0.418c0.218-0.097 0.453-0.146 0.691-0.144 1.002 0 1.606 0.685 1.606 1.816v0.248h-2.543v0.040c-0.011 0.132 0.006 0.265 0.049 0.391s0.112 0.24 0.202 0.338c0.090 0.097 0.2 0.174 0.322 0.227s0.254 0.079 0.386 0.077c0.17 0.020 0.342-0.010 0.495-0.088s0.278-0.199 0.362-0.349h0.685zM87.731 9.625h1.819c0.009-0.121-0.007-0.242-0.048-0.356s-0.105-0.219-0.189-0.306c-0.083-0.088-0.184-0.157-0.296-0.204s-0.233-0.069-0.354-0.066c-0.123-0.002-0.246 0.022-0.359 0.068s-0.218 0.115-0.304 0.202c-0.087 0.087-0.156 0.19-0.202 0.304s-0.069 0.236-0.067 0.359v0z"></path>
</symbol>
<symbol id="instagrams" viewBox="0 0 32 32">
<path d="M16 2.881c4.275 0 4.781 0.019 6.462 0.094 1.563 0.069 2.406 0.331 2.969 0.55 0.744 0.288 1.281 0.638 1.837 1.194 0.563 0.563 0.906 1.094 1.2 1.838 0.219 0.563 0.481 1.412 0.55 2.969 0.075 1.688 0.094 2.194 0.094 6.463s-0.019 4.781-0.094 6.463c-0.069 1.563-0.331 2.406-0.55 2.969-0.288 0.744-0.637 1.281-1.194 1.837-0.563 0.563-1.094 0.906-1.837 1.2-0.563 0.219-1.413 0.481-2.969 0.55-1.688 0.075-2.194 0.094-6.463 0.094s-4.781-0.019-6.463-0.094c-1.563-0.069-2.406-0.331-2.969-0.55-0.744-0.288-1.281-0.637-1.838-1.194-0.563-0.563-0.906-1.094-1.2-1.837-0.219-0.563-0.481-1.413-0.55-2.969-0.075-1.688-0.094-2.194-0.094-6.463s0.019-4.781 0.094-6.463c0.069-1.563 0.331-2.406 0.55-2.969 0.288-0.744 0.638-1.281 1.194-1.838 0.563-0.563 1.094-0.906 1.838-1.2 0.563-0.219 1.412-0.481 2.969-0.55 1.681-0.075 2.188-0.094 6.463-0.094zM16 0c-4.344 0-4.887 0.019-6.594 0.094-1.7 0.075-2.869 0.35-3.881 0.744-1.056 0.412-1.95 0.956-2.837 1.85-0.894 0.888-1.438 1.781-1.85 2.831-0.394 1.019-0.669 2.181-0.744 3.881-0.075 1.713-0.094 2.256-0.094 6.6s0.019 4.887 0.094 6.594c0.075 1.7 0.35 2.869 0.744 3.881 0.413 1.056 0.956 1.95 1.85 2.837 0.887 0.887 1.781 1.438 2.831 1.844 1.019 0.394 2.181 0.669 3.881 0.744 1.706 0.075 2.25 0.094 6.594 0.094s4.888-0.019 6.594-0.094c1.7-0.075 2.869-0.35 3.881-0.744 1.050-0.406 1.944-0.956 2.831-1.844s1.438-1.781 1.844-2.831c0.394-1.019 0.669-2.181 0.744-3.881 0.075-1.706 0.094-2.25 0.094-6.594s-0.019-4.887-0.094-6.594c-0.075-1.7-0.35-2.869-0.744-3.881-0.394-1.063-0.938-1.956-1.831-2.844-0.887-0.887-1.781-1.438-2.831-1.844-1.019-0.394-2.181-0.669-3.881-0.744-1.712-0.081-2.256-0.1-6.6-0.1v0z"></path>
<path d="M16 7.781c-4.537 0-8.219 3.681-8.219 8.219s3.681 8.219 8.219 8.219 8.219-3.681 8.219-8.219c0-4.537-3.681-8.219-8.219-8.219zM16 21.331c-2.944 0-5.331-2.387-5.331-5.331s2.387-5.331 5.331-5.331c2.944 0 5.331 2.387 5.331 5.331s-2.387 5.331-5.331 5.331z"></path>
<path d="M26.462 7.456c0 1.060-0.859 1.919-1.919 1.919s-1.919-0.859-1.919-1.919c0-1.060 0.859-1.919 1.919-1.919s1.919 0.859 1.919 1.919z"></path>
</symbol>
<symbol id="youtubes" viewBox="0 0 27 32">
<path d="M21.536 12.153h-1.685v-0.983c-0.639 0.738-1.18 1.111-1.771 1.111-0.518 0-0.878-0.246-1.058-0.691-0.109-0.27-0.187-0.693-0.187-1.313v-7.149h1.685v7.328c0.039 0.251 0.145 0.342 0.359 0.342 0.323 0 0.614-0.282 0.971-0.789v-6.881h1.685v9.026z"></path>
<path d="M13.908 9.472c0.089 0.894-0.186 1.337-0.71 1.337s-0.798-0.443-0.709-1.337v-3.575c-0.089-0.894 0.186-1.313 0.71-1.313s0.799 0.419 0.71 1.313l-0.001 3.575zM15.594 6.077c0-0.965-0.192-1.689-0.532-2.145-0.449-0.617-1.153-0.87-1.863-0.87-0.803 0-1.414 0.253-1.863 0.87-0.345 0.456-0.531 1.188-0.531 2.153l-0.002 3.209c0 0.959 0.165 1.622 0.51 2.073 0.448 0.615 1.175 0.941 1.885 0.941s1.449-0.326 1.898-0.941c0.34-0.452 0.497-1.114 0.497-2.073v-3.217z"></path>
<path d="M8.941 7.238v4.915h-1.774v-4.915c0 0-1.838-6.026-2.217-7.149h1.863l1.245 4.707 1.239-4.707h1.863l-2.217 7.149z"></path>
<path d="M15.966 20.845c-0.264 0-0.567 0.141-0.836 0.408l-0.002 5.42c0.268 0.27 0.573 0.408 0.838 0.408 0.463 0 0.672-0.342 0.672-1.236v-3.843c0-0.894-0.209-1.156-0.672-1.156z"></path>
<path d="M22.581 21.919c0-0.826-0.212-1.074-0.744-1.074-0.536 0-0.764 0.228-0.764 1.063v0.988l1.508-0.002v-0.976z"></path>
<path d="M21.852 27.080c0.395 0 0.626-0.217 0.717-0.649 0.015-0.088 0.012-0.474 0.012-1.123h1.685v0.253c0 0.521-0.043 0.89-0.057 1.052-0.054 0.359-0.18 0.683-0.376 0.97-0.444 0.648-1.103 0.968-1.942 0.968s-1.479-0.305-1.944-0.915c-0.341-0.447-0.56-1.111-0.56-2.060v-3.128c0-0.954 0.199-1.692 0.54-2.144 0.464-0.611 1.104-0.934 1.924-0.934 0.806 0 1.445 0.323 1.895 0.934 0.336 0.452 0.522 1.15 0.522 2.104l0 1.827h-3.196v1.605c-0.006 0.825 0.227 1.24 0.779 1.24zM18.324 25.754c0 0.826-0.070 1.409-0.177 1.787-0.214 0.664-0.682 1.009-1.321 1.009-0.571 0-1.156-0.346-1.693-1.015l-0.002 0.9h-1.597v-11.975h1.597l-0.002 3.904c0.519-0.643 1.106-1.009 1.697-1.009 0.639 0 1.069 0.372 1.284 1.041 0.107 0.359 0.215 0.938 0.215 1.783v3.575zM12.204 28.435h-1.685v-0.983c-0.639 0.738-1.181 1.11-1.771 1.11-0.518 0-0.878-0.246-1.058-0.691-0.109-0.27-0.187-0.693-0.187-1.313v-7.060h1.685v7.239c0.039 0.251 0.145 0.342 0.359 0.342 0.322 0 0.614-0.282 0.971-0.789v-6.792h1.685v8.936zM5.817 28.435h-1.774v-10.277h-1.863v-1.696l5.588-0.002v1.698h-1.951v10.277zM26.222 17.346c0 0-0.259-1.831-1.053-2.637-1.007-1.058-2.136-1.063-2.654-1.125-3.706-0.269-9.266-0.269-9.266-0.269h-0.012c0 0-5.56 0-9.266 0.269-0.518 0.062-1.646 0.067-2.654 1.125-0.794 0.806-1.053 2.637-1.053 2.637s-0.265 2.15-0.265 4.299v2.015c0 2.15 0.265 4.299 0.265 4.299s0.258 1.831 1.053 2.637c1.007 1.058 2.331 1.025 2.92 1.135 2.119 0.204 9.005 0.267 9.005 0.267s5.565-0.008 9.272-0.277c0.518-0.062 1.647-0.067 2.654-1.125 0.794-0.806 1.053-2.637 1.053-2.637s0.265-2.15 0.265-4.299v-2.015c0-2.15-0.265-4.299-0.265-4.299z"></path>
</symbol>
<symbol id="facebook" viewBox="0 0 16 32">
<path d="M10.356 31.941v-14.57h4.704l0.704-5.678h-5.408v-3.625c0-1.644 0.439-2.764 2.707-2.764l2.892-0.001v-5.079c-0.5-0.069-2.217-0.224-4.214-0.224-4.17 0-7.024 2.646-7.024 7.506v4.187h-4.716v5.678h4.716v14.57h5.64z"></path>
</symbol>
<symbol id="search" viewBox="0 0 34 32">
<rect y="17.1267" width="8.81988" height="3" rx="1.5" transform="rotate(-44 0 17.1267)" fill="white"/>
<circle cx="12.2593" cy="7.86161" r="6.36161" stroke="white" stroke-width="3"/>
</symbol>
<symbol id="icon-posta" viewBox="0 0 32 32">
<path d="M26.667 5.333h-21.333c-1.467 0-2.653 1.2-2.653 2.667l-0.013 16c0 1.467 1.2 2.667 2.667 2.667h21.333c1.467 0 2.667-1.2 2.667-2.667v-16c0-1.467-1.2-2.667-2.667-2.667zM26.133 11l-9.427 5.893c-0.427 0.267-0.987 0.267-1.413 0l-9.427-5.893c-0.333-0.213-0.533-0.573-0.533-0.96 0-0.893 0.973-1.427 1.733-0.96l8.933 5.587 8.933-5.587c0.76-0.467 1.733 0.067 1.733 0.96 0 0.387-0.2 0.747-0.533 0.96z"></path>
</symbol>
<symbol id="icon-phone" viewBox="0 0 32 32">
<path d="M24.881 19.774l-3.268-0.373c-0.785-0.090-1.557 0.18-2.11 0.733l-2.367 2.367c-3.641-1.853-6.626-4.825-8.478-8.478l2.38-2.38c0.553-0.553 0.823-1.325 0.733-2.11l-0.373-3.242c-0.154-1.299-1.248-2.277-2.56-2.277h-2.226c-1.454 0-2.663 1.209-2.573 2.663 0.682 10.987 9.469 19.761 20.443 20.443 1.454 0.090 2.663-1.119 2.663-2.573v-2.226c0.013-1.299-0.965-2.393-2.264-2.547z"></path>
</symbol>
<symbol id="icon-person" viewBox="0 0 32 32">
<path d="M16 16c2.947 0 5.333-2.387 5.333-5.333s-2.387-5.333-5.333-5.333c-2.947 0-5.333 2.387-5.333 5.333s2.387 5.333 5.333 5.333zM16 18.667c-3.56 0-10.667 1.787-10.667 5.333v1.333c0 0.733 0.6 1.333 1.333 1.333h18.667c0.733 0 1.333-0.6 1.333-1.333v-1.333c0-3.547-7.107-5.333-10.667-5.333z"></path>
</symbol>
<symbol id="icon-close" viewBox="0 0 32 32">
<path d="M23.733 10.304l-1.504-1.504-5.963 5.963-5.963-5.963-1.504 1.504 5.963 5.963-5.963 5.963 1.504 1.504 5.963-5.963 5.963 5.963 1.504-1.504-5.963-5.963 5.963-5.963z"></path>
</symbol>

</defs>
</svg>
